<?xml version="1.0" encoding="UTF-8"?> <svg xmlns="http://www.w3.org/2000/svg" id="a" viewBox="0 0 16.33 12.23"><defs><style>.b{fill:#fff;}</style></defs><path class="b" d="M5.71,7.28v-.08h-.1v-.06h-.1v-.05s-.08-.01-.08,.05h.08v.06h.1s-.05,.06-.1,.1c-.04,.01-.07,.04-.08,.05-.04,.04-.11,.04-.11,.08h.24c-.17,.13-.29,.2-.47,.23,0-.02,.01-.05,.04-.08-.04,0-.07,0-.11,.04-.01,0-.01,.02-.02,.04,.01,0,.02,.01,.05,.01h.04c-.04,.06-.07,.08-.08,.13-.07,.07-.13,.07-.2,.02,.01-.04,.04-.05,.05-.08,0-.01,0-.04-.01-.04-.02-.01-.04-.01-.04-.01-.08,.08-.17,.14-.26,.19v.02s.04,.01,.05,.01c.04,0,.07-.01,.1-.05,.04-.04,.07-.05,.12-.05-.08,.13-.08,.11-.25,.17-.01,0-.02,0-.05,.01-.06,.08-.14,.13-.26,.14l-.1,.07c-.07,.04-.12,.08-.22,.08-.05,0-.11,.04-.16,.05-.14,.07-.3,.1-.47,.16-.16,.02-.32,.02-.5,.02h-.46s-.05-.01-.06-.05c-.08,.07-.11,.16-.13,.25-.07,.14-.12,.31-.2,.47-.04,.1-.08,.19-.12,.3-.05,.1-.1,.19-.13,.29-.01,.06-.05,.11-.06,.16-.05,.13-.13,.23-.17,.36,0,.06-.04,.11-.07,.12-.06,.05-.05,.16-.08,.2-.05,.05-.08,.11-.08,.18,0,.04-.02,.05-.05,.08-.08,.12-.13,.26-.22,.38-.01,.01,0,.05-.01,.06,0,.04-.01,.08-.04,.08-.05,.04-.05,.07-.06,.12-.04,.1-.04,.19-.12,.28-.04,.04-.05,.12-.08,.17-.04,.07-.08,.16-.13,.22-.04,.05-.08,.05-.12,.04-.11-.05-.19-.13-.28-.23l-.07-.12c0-.12-.05-.22-.05-.34,.12-.18,.23-.35,.34-.54v.44h.05s.08-.1,.12-.17c0,0-.02-.04,0-.05,.01-.05,.02-.08,.05-.13,.06,0,.08-.07,.1-.12,.05-.17,.16-.34,.2-.49l.02-.16s.06-.08,.07-.12c0-.06,.05-.1,.08-.14h0c.01-.13,.12-.22,.12-.31,.07-.11,.1-.22,.13-.32,.02-.06,.06-.11,.1-.16,.01-.04,.04-.07,.04-.08l.26-.7c.06-.19,.04-.19-.08-.29-.01-.01-.04-.01-.05-.01l-.25-.25s0-.04,.01-.05c0,0,.02-.02,.04-.02,.05,0,.25,.12,.31,.17h-.13s.02,.05,.06,.05h.07s.04,.05,.07,.05c.01,0,.05,0,.07-.01,.02-.05,.07-.1,.1-.17,.04-.14,.12-.28,.14-.43,.08-.24,.2-.48,.25-.74,.07-.08,.07-.2,.12-.3,.05-.1,.06-.22,.1-.31,.05-.18,.13-.37,.18-.55,.04-.14,.08-.26,.12-.4,.06-.2,.08-.38,.14-.56,.07-.2,.16-.4,.19-.61,.02-.12,.06-.2,.26-.19h.06c.2,.06,.26,.11,.24,.29,0,.01,.01,.05,0,.07-.05,.06-.05,.13-.05,.19,0,.04-.02,.07-.04,.08-.04,.05-.05,.08-.07,.13-.01,.08-.06,.17-.08,.26-.01,.11-.06,.18-.11,.29,0,.04-.02,.06-.04,.08,0,.13-.05,.24-.1,.36-.04,.05-.07,.12-.07,.17-.01,.13-.08,.26-.12,.38-.01,.11-.08,.22-.08,.31-.01,.12-.08,.2-.1,.31l-.1,.24c-.05,.13-.1,.26-.13,.4-.05,.13-.07,.26-.16,.4-.02,.05-.02,.12-.05,.17-.01,.08,.02,.1,.1,.08,.08-.04,.17-.04,.25-.01,0,0,.02,0,.02,.01-.02,0-.04,.01-.04,.01l-.05,.05c.16,.02,.31-.02,.44-.07,.2-.07,.38-.19,.58-.25,.11-.04,.19-.05,.28-.1,.23-.12,.48-.22,.7-.38,0-.02,.01-.04,.02-.04,.12,0,.19-.1,.28-.13,.1-.05,.18-.1,.24-.17,.07-.05,.08,0,.12,0,0,.01,.01,.04,.01,.05,.07,0,.12-.01,.14-.08,.1,0,.14-.06,.19-.14h-.05s-.04-.02-.04-.04c0,0,.02-.01,.04-.01h.05v.05s.04-.02,.05-.05c.04,0,.08-.02,.12-.06,.04-.02,.07-.05,.12-.05-.02,.04-.05,.07-.07,.08-.01,.04-.01,.05-.04,.07,.02,0,.02,.01,.04,.04t-.04,.01v-.05c-.06,0-.11,.04-.14,.08h0s-.04,.02-.04,.05h.04s.01,.04,.01,.05h.08s-.04,.07-.06,.1l-.07,.11s.12-.04,.17-.06c.01,0,.04,0,.05,.02-.01,.01-.01,.04-.04,.05-.01,.01-.02,.01-.06,.01l-.12,.06Zm2.97-3.87s.01-.12,.01-.18v-.02s-.04,.02-.05,.02c-.01,.04-.04,.08-.04,.12,.02,.18-.08,.32-.06,.5-.08,.07-.08,.16-.08,.25,.06-.01,.04-.1,.08-.11,.06-.04,.04-.08,.01-.14h.07s.08-.01,.1,.04c0,.02-.04,.05-.05,.07-.02,.01-.04,.01-.04,.04-.04,.02-.01,.05,0,.07v.04c-.12,.05-.12,.2-.23,.24v-.07s.05-.12,.05-.17c-.04,0-.07,.02-.1,.04,0-.05,0-.12,.02-.17,.07-.06,.07-.17,.07-.25-.02,0-.04,0-.04,.02-.1,.25-.26,.47-.38,.7-.01,.05-.05,.08-.06,.13-.08,.1-.17,.18-.22,.3-.05,.12-.11,.18-.2,.25-.06,.05-.1,.13-.18,.18-.01,.01-.01,.05-.01,.08,.01,0,.01,.01,.02,.01-.02,.04-.02,0-.02-.01l-.12,.1s.01,.04,.04,.05c.01,0,.01,.02,.02,.04-.02,.01-.05,.01-.05,.05,.04,0,.05-.01,.05-.05,.02,0,.04-.01,.04-.01,.16-.12,.25-.28,.37-.41,.13-.18,.26-.36,.36-.56,.05-.11,.1-.22,.18-.3,.04-.05,.04-.11,.11-.14,.01,.08-.02,.17-.07,.22-.08,.12-.14,.25-.22,.36-.1,.17-.2,.34-.31,.47-.32,.38-.64,.74-.98,1.08l-.49,.44c-.07,.07-.17,.12-.24,.19-.01,.01-.05,0-.06,0l.05-.08s-.04-.02-.04-.04c0,0,.01-.01,.04-.01v.05s.04-.02,.04-.05h-.04s.04-.04,.04-.06c.01-.02,.02-.05,.05-.05v-.05h-.08c.01-.06,.06-.08,.13-.08v.04s.04-.01,.05-.04h-.05l.05-.05v.05h.1v.04s.04-.01,.05-.04h-.05v-.05h-.1l.05-.1s-.06,.01-.1,.04c-.07,.02-.13,.06-.18,.1,0-.02,0-.05,.01-.08,.04-.04,.07-.07,.1-.08,.16-.05,.22-.17,.34-.26,.05-.04,.08-.08,.12-.13,.05-.05,.24-.2,.31-.24h.01c0-.06,.04-.1,.07-.13,.04-.01,.06,0,.08,.04-.02,.02-.05,0-.04,.04,.01,0,.01-.01,.04-.04l.06-.05c.08-.14,.22-.26,.3-.4,.11-.05,.08-.18,.19-.24-.04-.13,.07-.18,.13-.26s.11-.14,.16-.23c.16-.26,.3-.52,.42-.8,.12-.24,.22-.5,.22-.8,0-.02,0-.07,.01-.08,.04-.07,.02-.13,.02-.22,.01-.18,.04-.37-.04-.56,0-.17-.05-.32-.14-.47-.02-.04-.04-.07-.06-.1-.06-.17-.18-.29-.28-.43-.22-.29-.56-.37-.85-.54h-.08s-.1-.02-.11-.1c-.02-.05-.07-.05-.11-.05,0-.01,0-.05-.02-.01,.01,0,.01,.01,.02,.01-.01,.01-.02,.05-.02,.05-.11-.06-.22-.05-.34-.05h-.2s-.02-.04-.05-.05c-.04,.01-.06,.01-.08,.04l-.28-.04v-.02s0-.06-.04-.06h-.31s-.04,.04-.05,.04c.1,.01,.19,.01,.31,.01v.04s0,.05-.02,.05c-.07-.05-.16,.01-.26,0-.08,0-.14,.01-.22,.05-.06,.04-.14,.04-.22,.05-.02,0-.06-.01-.1-.05v-.04s.08,0,.12-.01c.01,0,.01-.02,.04-.04-.08,0-.17-.01-.24,0,0,0-.01,.02-.04,.04,.05,.01,.05,.05,.04,.08-.04,.04-.05,.06-.1,.04-.04,.01-.05,.06-.08,.06-.12,.04-.23,.04-.34,.07-.11,.05-.22,.1-.35,.1h-.01c-.08,.08-.2,.1-.3,.13l-.1,.05c-.17,.13-.36,.18-.52,.29-.07,.02-.16,.06-.2,.13-.07,.06-.14,.11-.23,.14-.22,.11-.37,.29-.55,.4-.04,.02-.05,.06-.07,.07-.01,.04-.02,.05-.05,.07-.1,.07-.19,.16-.3,.26-.02,.05-.08,.1-.13,.13-.05,.04-.08,.06-.1,.13-.01,.06-.07,.13-.12,.18-.05,.04-.05,.12-.11,.13-.07,.04-.04,.13-.11,.18-.06,.04-.1,.11-.1,.19-.01,.01-.05,.05-.06,.05-.07-.04-.07,0-.06,.05,.04,.05,.04,.08,0,.12-.02,.05-.06,.07-.06,.13,0,.05-.02,.08-.07,.11-.02,.02-.06,.07-.06,.12,0,.08-.05,.14-.05,.22,.06,.05,0,.1,.02,.17,.04,.05-.06,.1-.02,.17,0,.02-.04,.06-.06,.11,0,.02,0,.07,.02,.08,.04,.05,0,.07-.04,.11-.01,.02-.01,.05,.01,.07s.04,.04,.04,.08c-.01,.04,0,.08,0,.12-.01,.05-.01,.1-.05,.13-.05,.08-.04,.16,0,.24,0,.02,.01,.06,0,.11-.01,.08-.04,.13-.04,.18-.05,.02-.1,.02-.14,.04v-.1s-.02-.01-.02-.04c0,0-.01,.02-.01,.04v.12s-.08,.05-.12,.06c0-.04,0-.06,.02-.1,0-.08-.05-.18-.02-.29,.04-.08,.02-.19,0-.28,0-.04,0-.07-.01-.11,0-.01-.01-.05,0-.06,.05-.12,.01-.23,.04-.35v-.17h.05s-.01,.1,.05,.12c0,.01,0,.05,.04,.01-.02,0-.04-.01-.04-.01,0-.04,.01-.05,.01-.07,.04-.05,.04-.1-.02-.13-.02,0-.04-.01-.04-.04,0-.08,0-.14,.01-.23H.4s.04-.05,.05-.05c0,0,.02,.01,.02,.04,.01,.05,.01,.11,.05,.18v-.16s.01-.05,.01-.05c.12-.05,.08-.14,.08-.23,0-.07,0-.12,.08-.16v-.06s-.04-.04-.01-.07c.04-.02,.06-.08,.1-.13,.02-.04-.01-.08,.02-.11,.01-.06,.01-.12,.06-.16,.04-.04,.04-.08,.04-.13,0-.01,0-.04,.01-.05,.12-.05,.08-.2,.17-.29l.05-.02c.04-.12,.12-.19,.17-.29,.04-.04,.07-.06,.1-.1,.16-.16,.26-.32,.42-.47,.12-.08,.25-.17,.35-.29l.04-.05s.06-.01,.08-.02c.18-.16,.38-.28,.58-.38,.08-.07,.18-.08,.26-.16,.07-.06,.18-.08,.26-.13,.13-.04,.25-.1,.37-.14,.3-.12,.58-.22,.9-.3,.14-.04,.31-.05,.46-.08,.04,0,.05,.01,.07,.04,0,.01,0,.05,.04,.01,0,0-.02-.01-.04-.01,.01-.02,.04-.05,.05-.05,.1-.02,.22,.01,.31-.04,.02,0,.05,.01,.07,.04,0,.01,0,.05,.04,.01t-.04-.01s.04-.06,.05-.06h.78c.1,.06,.2,.04,.3,.07l.28,.1c.19,.05,.36,.16,.52,.22,.12,.04,.2,.11,.29,.18,.08,.11,.2,.19,.28,.32,.02,.02,.04,.02,.08-.02,.07,.04,.13,.08,.13,.19,.11,.05,.16,.11,.16,.23,0,.13,.08,.22,.14,.31,0,.02,.04,.02,.04,.02,.1-.02,.05,.06,.08,.1,.07,.06,.1,.17,.13,.25,.01,.02,.04,.06,.01,.1-.01,.13,0,.23,.06,.35v.12c.01,.1,0,.19,.01,.3,0,.06-.04,.11-.05,.18,0,0,.01,.01,.04,.01-.04,.02-.04,0-.04-.01-.05,0-.05,.05-.05,.08,.01,0,.02,0,.02,.01,.02,0,.06,.02,.06,.02,.01,.02,0,.06-.04,.06-.02,.01-.04,.04-.05,.05-.02,.02-.05,.04-.05,.04,.01,.1-.06,.17-.06,.25,.04,.01,.07,.05,.04,.06-.05,.04-.1,.08-.05,.16h-.01s-.04,.01-.04,0c-.05-.07-.04-.12,.04-.17,0-.01,.01-.04,.02-.05-.05-.02-.1-.04-.06-.12ZM.42,11.87l-.02-.02v.04s.02-.01,.02-.01Zm.02-7.24h-.01v0Zm.07-1.02s-.02-.04-.02-.05c0,0,.02,0,.02-.02,.01,.02,.01,.04,.01,.04,0,.01-.01,.01-.01,.04ZM.5,11.69v-.02l-.02,.02h.02Zm.06-.17s-.05,.01-.04,.05t.02,.01s.01,0,.01-.01v-.05Zm-.01-8.08s0,.01,.01,.01c-.01,0-.01,.02-.01,.02-.02-.02-.02-.04,0-.04Zm1.43,4.98s0-.04-.02-.04c-.02-.01-.1,0-.1,.04-.01,.08-.06,.17-.1,.23-.05,.11-.05,.2-.13,.28,.06,.07,0,.14-.04,.19-.05,.07-.08,.13-.08,.24,0,.05-.01,.1-.05,.13-.1,.06-.1,.18-.13,.28l-.11,.25c-.14,.3-.28,.58-.4,.88h-.01s-.01,.08-.05,.11c-.05,.05-.04,.1,0,.14-.11,.12-.17,.25-.2,.36h.02c.1-.1,.16-.22,.18-.36,0-.01,.01-.01,.01-.01,.08-.17,.18-.34,.25-.5,.04-.1,.08-.18,.13-.26,.05-.1,.1-.18,.13-.29,0-.06,.04-.13,.07-.19,.07-.2,.18-.4,.26-.6,.11-.29,.22-.56,.35-.85,.01,0,.01-.01,0-.01ZM.64,3.23v-.02h.01v.02h-.01Zm.08-.25s.02-.1,.06-.1t.02,.01s-.04,.1-.07,.1c0,0,0-.01-.01-.01Zm.06,7.9h.02s0-.02-.02,0Zm.05-8.07s-.01-.01-.01-.01c0-.02,.01-.02,.01-.02,0,0,.02,0,.02,.02,0,0-.02,0-.02,.01Zm.08-.22s0-.02,.02-.05c0-.01,.01-.01,.02-.01h.02l-.05,.08s-.02-.02-.02-.02Zm.16-.22v-.02s.01,.01,.01,.01c0,0-.01,0-.01,.01Zm.06,8.3s-.01-.01-.04,0l.02,.02s.01,0,.01-.02Zm.05-8.18s-.02,0-.02-.01c0,.01,0,.05,.02,.01Zm0,8.1s-.01-.01-.01-.01c-.01,0-.01,.01,0,.01h.01Zm.04-8.41s-.01,0-.01-.02h.02s-.01,.02-.01,.02Zm.1,8.06h-.01v0ZM1.44,1.9s0-.01-.01-.01h.04s-.02,.01-.02,.01Zm.11-.1s0-.02,.01-.04c0,.01-.01,.04-.01,.04Zm.04-.04s.01-.04,.02-.05c0,.04-.01,.05-.02,.05Zm.02-.05s.02-.04,.05-.04c0,.02-.01,.04-.05,.04Zm.05,7.78s-.01,0-.01-.01c0,.01-.01,.02-.01,.05,0,.01,.01,.01,.01,.01,0-.01,.01-.04,.01-.05ZM1.66,1.67s.02-.04,.06-.04c0,.01-.02,.04-.06,.04Zm0,6.42v-.05h.06l.02,.04s-.01,.01-.02,.01h-.06Zm.06,1.28h-.02s-.01,.01-.01,.04h.01s0-.02,.02-.04Zm.1-7.75h-.1c.01-.06,.05-.07,.1-.08v.08Zm-.07,7.63h-.01v.02s.01,0,.01-.02Zm.07-7.71s.01-.04,.01-.04c.04,.04,0,.01-.01,.04Zm.12-.07s-.02-.01-.02-.04c0-.01,.02-.02,.04-.02,.01-.02,.04,0,.04,.01h0l-.05,.05Zm0,7.35h-.02s.02,.02,.02,.02v-.02Zm.14-.65s0-.01-.01-.01c-.02-.02-.05-.02-.08,0h-.02s.04,.04,.07,.04c.01,0,.04-.02,.05-.02Zm-.04,.4s-.05,0-.01,.04t.01-.04Zm.34-1.23c.04-.13,.1-.25,.12-.41,.02-.14,.1-.26,.14-.41,.02-.05,.04-.12,.07-.17v-.05s-.02-.04-.02-.05l-.02,.02c-.06,.17-.12,.34-.19,.5-.02,.08-.08,.17-.1,.23-.01,.16-.1,.28-.12,.41-.01,.1-.06,.18-.1,.26l-.14,.36s.01,.05,.02,.05c.05,0,.08,0,.11-.05,.06-.25,.16-.47,.23-.71Zm-.32,1.23s.02,0,.01-.02c0,0-.01,.01-.01,.02Zm.12-7.27h0s-.01-.02-.02-.02c.02-.02,.02,0,.02,.01h0Zm.06,.17h-.04s.01,.01,.01,.01c0,0,.02,0,.02-.01Zm0,6.62h0Zm.06-.2s0,.02,.01,.02v-.04s-.01,.01-.01,.01Zm.42,.59l-.08-.05s-.04-.02-.05,0c-.08,.05-.17,.01-.25,.01-.02,.01-.04,.04-.04,.05,.13,0,.26,.02,.42-.01Zm-.35-7h0Zm-.02,6.85v.02l.02-.02h-.02Zm.07-.7h0s.01-.06,.01-.08c-.04,0-.05,.04-.04,.07h.02Zm0,.56h-.02s.02,.01,.02,.01c.1,.02,.19,.02,.3-.01v-.02c-.11,0-.2,0-.3,.02Zm.02-.64s.02,0,.01-.02c0,0-.01,.01-.01,.02Zm.02-6.13s-.04,0-.01,.02c.01,0,.01-.01,.01-.02Zm.04-.05s-.02,.02-.02,.04c.01-.01,.02-.02,.02-.04Zm.05-.05s-.02,.02-.02,.04c.02,0,.06,0,.02-.04Zm0,6.99s0,.01-.02,.01l.02,.02v-.02h0Zm.12-7.05s-.02,.02-.04,.02c0,0,.01,0,.01,.01,0-.01,.02-.04,.02-.04Zm.1-.05s-.08,0-.1,.04c.05,0,.07,.01,.1-.04Zm.04,7.05s-.04-.01-.04-.01h-.07s0,.01-.01,.01v.02s.05,.01,.06,0c.02,0,.04,0,.06-.02Zm-.07-7.18h0Zm0,5.07s0,.02,.01,.04v-.06s-.01,.01-.01,.02Zm.08-4.99s-.05,.01-.05,.05c.04-.01,.05-.01,.05-.05Zm-.04,4.83h.02v-.06s-.02-.01-.02,0c-.01,.02,0,.04,0,.06Zm.12-4.88s-.07,0-.08,.05c.04,0,.08,0,.08-.05Zm-.02-.12h0Zm.07,.07s-.04,.01-.04,.05c.02,0,.04-.02,.04-.05Zm0,7.16s.12,.06,.14-.02c-.05,0-.1,0-.14,.01h-.04s.02,.01,.04,.01Zm.1-7.22s-.08,0-.08,.06c.04,0,.07,0,.08-.06Zm.16,7.38c-.07,.01-.12,.01-.17,.01,0,0-.01,0-.01,.02h.01s.12,.05,.17-.04Zm-.05-7.42s-.08,0-.11,.05c.05,0,.08,.02,.11-.05Zm-.08-.06h0s.01,0,.02,0c-.01,0-.01-.02-.01-.02-.01,0-.01,.02-.01,.02Zm.02,7.3s.08,0,.12-.02h0s-.1-.05-.12,.02Zm.08-7.26s-.01,0-.01-.02c0,.02-.01,.04-.01,.04t.02-.01Zm.37,7.35h-.02c-.11-.01-.22,.01-.32,.06v.02h.18s.1-.04,.14-.05c.02,0,.02-.02,.02-.04Zm-.12-7.47c-.06,0-.12-.01-.17,.05v.04h.02s.11-.04,.14-.08Zm-.13,7.3h.07s.01-.01,.01-.04h-.05s-.02,.02-.04,.04Zm.05,.08s0,.01,.02,.01h-.02Zm.04-.13h.08s.05-.01,.06-.05h-.07s-.06,.02-.07,.05Zm.05-7.36s.02-.01,.04-.04h-.07l.04,.04Zm.1,.05s-.07-.01-.1,.05c.04,0,.08,0,.1-.05Zm-.02,7.39s-.02,.01,0,.01t.01-.01h-.01Zm.11-7.44s-.06,0-.08,.05c.04,0,.08,0,.08-.05Zm.46,7.14s.01-.04,.04-.05c-.06,0-.08,0-.14,.01-.13,.07-.26,.12-.4,.18-.01,0-.01,.02-.04,.04,.04,0,.08,.02,.12,0,.13-.06,.26-.12,.42-.18Zm-.2-7.23c-.1,0-.18,.01-.23,.1,.08,0,.17-.01,.23-.1Zm-.04-.12s.04,.01,.06,.01c0,0,0-.01,.01-.01-.01,0-.04-.01-.05-.01h-.02Zm.16,7.66s-.05-.05-.07-.05c-.01-.02-.02,0-.02,0-.04,.01-.04,.02-.06,.05,.02,.01,.04,.04,.06,.04s.06,0,.07-.02c.04,0,.04-.01,.02-.01Zm.12-7.62s-.06-.02-.07,0c-.07,.01-.13,.01-.17,.08,.02,0,.05,.01,.07,0,.06-.02,.13-.02,.17-.08Zm-.2,7.48v0h0Zm.08-7.56h0Zm.01,7.51v0h0Zm.11,.14h-.02s-.01,0,0,0h.02Zm.01-.22s-.04,.01-.04,.01t.02,.02s.01,0,.02-.02h-.01Zm.13-7.42h-.08s-.05,.01-.06,.02c.02,.02,.06,.02,.07,.02,.04,0,.06-.02,.07-.05Zm-.14,7.32s.07,.01,.1-.05c-.04,0-.08,0-.1,.05Zm.01-7.4h0Zm.2,7.62l-.02-.02h-.17s0,.02-.01,.02h.01s.07,.06,.11,.05l.08-.05Zm-.12-.26s.08,.01,.1-.05c-.05,0-.08,0-.1,.05Zm.01,.1s-.01,.01,0,.04c0,0,.02,0,.02-.02,0,0,0-.01-.02-.01Zm.17-7.42h-.08s-.05,.02-.05,.06h.08s.05-.02,.05-.06Zm.16,7.14c-.08,0-.16,.06-.22,.11-.02,0-.02,.01-.02,.04,.1-.02,.18-.06,.24-.14Zm-.22,.25h-.02l.02,.02v-.02Zm.06,.08s-.05,0-.01,.04c0-.02,.01-.02,.01-.04Zm.16-7.52h-.08s-.06,.02-.07,.05h.08s.05-.01,.07-.05Zm-.07,7.48h-.01s-.06-.01-.06,.04c.02-.01,.04-.01,.06-.01t.01-.02Zm-.05-.08s.01-.01,.01-.02c-.01,.01-.04,0-.01,.02Zm.05-.06s-.01,.01-.01,.04c.01,0,.02,0,.01-.04ZM4.7,.34h-.16s-.01,.04-.02,.05h.13s.05-.01,.05-.05Zm.24,6.99c-.1,.01-.18,.05-.26,.08-.08,.02-.13,.08-.16,.16,.02-.01,.07,0,.11-.01,.1-.05,.18-.12,.29-.17,.01-.01,.01-.04,.02-.06Zm-.41,.38v-.02h0v.02Zm.1-.06h.01v-.02s-.01,.01-.02,.01t.01,.01Zm.08-7.44v.02l.04-.02h-.04Zm.18,.07s-.1,0-.14,.01c-.02,0-.04,.02-.04,.04h.12s.05-.01,.06-.05Zm-.06,7.27v-.02s-.01,.01-.02,.02h.02Zm.02-.04s.02,0,.01-.02c0,0-.01,.01-.01,.02Zm.07,.07s0-.02-.01-.02v.04s.01-.01,.01-.01Zm.48-.46h-.08s.04-.06,.05-.1c-.06-.01-.11,.02-.14,.05-.1,.08-.22,.12-.29,.24,.04,0,.07,0,.08-.02,.04-.01,.07-.02,.11-.02,.02-.07,.06-.11,.14-.08v.02s.05,0,.05-.02h-.05s.02-.06,.05-.06v.06s.08,0,.08-.06Zm-.43,.29s-.04,0-.01,.04c.01,0,.01-.02,.01-.04Zm.04-7.26h-.01s-.04,0-.04,0t.04,.02s.01,0,.01-.02Zm0,7.22s-.01,.02-.01,.04c.01,0,.05,0,.01-.04Zm.05,.11h0Zm.06-.16s-.04,0-.01,.04c0-.01,.01-.02,.01-.04Zm.01-.01s.02,0,.02-.02c0,0-.01-.01-.02-.01v.04Zm.05,.14l-.05,.1c.1,.02,.14-.02,.18-.11,0,0,0-.02,.01-.04h-.1l-.05,.05v-.05s-.02,.01-.04,.04c.01,0,.01,.01,.04,.01ZM5.36,.22s-.01-.01-.01-.01c-.05,0-.12-.01-.16,.01-.01,0-.01,.02-.01,.02h.17s0-.02,.01-.02Zm-.13,7.21s-.01-.01-.01-.04l-.04,.04h.05Zm.04-.18s-.02,.01-.02,.01l.02,.02v-.04Zm.11-.25s.02-.01,.02-.04c.01,.04,0,.04-.02,.04ZM5.5,.2s-.05,0-.01,.04c0-.01,.01-.02,.01-.04Zm-.01,6.7s.02,.01,.02,.04t-.04-.02s.01-.01,.01-.01Zm.01,.3h-.01s0,0,.01,0Zm.16-.12h-.05v-.05s-.02-.05-.05-.01c-.02,.01-.04,.04-.05,.06h.1v.05s.04-.01,.05-.05Zm0,.24s-.05,.08-.1,.1q.01-.08,.1-.1Zm.04-.29s-.04,.02-.04,.05c.01,0,.04-.01,.04-.05Zm.01,.25s-.01,.04-.05,.04c0-.04,.01-.04,.05-.04Zm0-.34h-.04s.02,.04,.04,.04v.05s.04-.01,.04-.05h-.04v-.04Zm.04-.19h-.04s.02-.06,.04-.06v.06Zm.04,.16s-.02,.02-.02,.02v-.04h.02Zm-.02,.05h0Zm0-.25s0-.01,.02-.02c.02,.02,0,.02-.02,.02Zm.11,.17s.01-.01,.02-.01v.04s.07,.01,.11,.01c-.04,.07-.07,.1-.16,.08l.05-.1s-.01-.02-.02-.02Zm.06-.31s-.01-.01-.01-.01c.01,0,.01-.02,.04-.02h.04l-.02,.04h-.04Zm.12,.05s-.04,.05-.05,.05c0-.01,.01-.02,.05-.05Zm.04,.42s-.02,0-.02,.01c0-.01-.01-.01-.01-.01v-.02s.04,0,.04,.02Zm.05-.32h-.04v.06s.04-.02,.04-.06Zm.08-6.54s-.02-.01-.04-.01h-.07s.02,.04,.04,.04h.02s.02,0,.05-.02Zm-.04,6.4s-.04,.02-.04,.04c.02,0,.04-.01,.04-.04Zm-.02,.12s-.01-.01-.01-.04v.05h.01Zm.07,.2s-.01,.01-.01,.04c-.04-.04,0-.04,.01-.04Zm.17-.18s.12-.07,.17-.1c0,.02,0,.06-.04,.1-.07,.05-.13,.12-.22,.17-.01,.01-.05,0-.08,0,.04-.08,.1-.12,.17-.17Zm-.12-.1s-.05,0-.01,.01c0,0,0-.01,.01-.01ZM6.51,.19s-.04-.04-.06-.04h-.11s-.05,0-.07,.08c.05,0,.1,.01,.16-.02,.01-.01,.05-.01,.08-.02Zm-.08,6.28s.08-.05,.08-.1h-.19v-.05s-.05,.01-.05,.05h.05v.1h.05v.05s.04-.01,.06-.05Zm-.11,.1s-.05,.02-.05,.04c.04,0,.05-.01,.05-.04Zm0-.24s.04-.02,.05-.06c-.02,.02-.05,.02-.05,.06Zm.05-.06s.04-.01,.04-.02c-.01,0-.04,0-.04,.02Zm0,.2s0-.04,.02-.04c0,0,.01,.02,.04,.04h-.06Zm.06-.25s.02-.01,.02-.02c-.01,0-.02,.01-.02,.02Zm.08-.08s-.04,.02-.04,.04c.01,0,.04,0,.04-.04Zm.05,.19h-.05s0-.06-.04-.02t.04,.02v.05s.05-.02,.05-.05Zm0-.24s-.04,.02-.05,.05c.02-.01,.05-.01,.05-.05Zm.08-5.88h-.12s.06,.02,.1,.02l.02-.02Zm-.08,5.88s.05-.01,.05-.05c-.02,0-.04,.02-.05,.05Zm.05,.18s-.05,.02-.05,.06c.02,0,.05-.02,.05-.06Zm0,.3s-.02,.04-.05,.04c0-.01,.01-.04,.05-.04Zm0-.53s.05-.01,.05-.05l-.05,.05Zm.05,.2s-.05,.01-.05,.02c.04,0,.05-.01,.05-.02Zm-.05,.31s.01-.01,.01-.04c.02,.04,0,.04-.01,.04Zm.14-.65s-.08,.04-.1,.08q.08,0,.1-.08Zm-.01,.29s-.07-.02-.08,.02c.04,0,.08,.02,.08-.02Zm.01-.3s.04,0,.02-.04c0,.01-.02,.04-.02,.04Zm.04,.24s-.04,.02-.04,.04t.04-.04Zm.05-.05s-.04,.02-.04,.05c.02-.01,.04-.02,.04-.05Zm.11,.18l-.08,.14s-.04,0-.04,0c-.02-.02-.02-.04-.02-.04,.02-.07,.07-.11,.14-.11Zm-.07-.2s-.01,.01-.01,.02c.01-.01,.02-.01,.01-.02Zm.05-.34s-.01,0-.01-.02c0,.02,0,.04,.01,.02Zm.35,.22c-.06,.1-.13,.18-.22,.26-.01,.04-.06,.05-.11,.06,0-.01,0-.05,.01-.06l.25-.25s.05-.01,.06-.01Zm-.23-.04s-.07,0-.08,.01v.04s.01,.02,.04,0c.01-.01,.02-.04,.05-.05Zm.04-.04h-.02s-.01,.02-.01,.02t.04-.02Zm0-.13s0-.04-.02-.01c0,.01,.02,.01,.02,.01Zm.1-5.37s-.04-.02-.04-.02c-.01,0-.04,0-.05,.02,.01,0,.04,0,.05,.01,0-.01,.02-.01,.04-.01Zm-.05,5.41s-.02-.01-.04-.01c0,.01,0,.02,.04,.01Zm.05-.12v-.04l-.04,.02s.02,0,.04,.01Zm.1-.05h-.05s0-.01-.01-.04c0,.02-.02,.02-.02,.04h.04v.05s.05-.01,.05-.05Zm-.05,.05h-.04s.02,.02,.02,.04t.01-.04Zm.1,.2s.02,.06-.05,.08c0-.04,0-.08,.05-.08Zm-.01-5.46h0Zm.1,5.42v.02h-.08s.04-.04,.07-.04h.01ZM7.4,.46h0Zm.04,5.28v.01h0Zm.07-.08s-.02,.05-.04,.05c0-.02,.01-.05,.04-.05Zm.05-.05s-.02,.05-.04,.05c0-.02,.01-.02,.04-.05Zm.04-.04s0,.04-.02,.04t.02-.04Zm.19-.16s-.01,.01-.04,.02c.06,.05,.02,.08-.02,.12-.02,.01-.06-.01-.07-.05,0-.05,.04-.1,.08-.13,0,0,.01,0,.04,.01,0,0,.01,0,.01,.02Zm.04-.12s.01,0,.01,.01h-.02s.01-.01,.01-.01Zm.08-.13s.04-.02,.04-.02c0,0,0,.02-.02,.04t-.01-.01Zm.13-.17c0,.06-.01,.12-.1,.13,0-.07,.02-.12,.1-.13Zm.17-.13h0l-.17,.13c.04-.12,.05-.16,.14-.16,0,.02,.02,.02,.02,.02Zm-.04-4.02s-.01,0-.04-.01c.04-.02,.04,0,.04,.01,0,0,.01,0,.01,.01t-.01-.01Zm.01,3.84s.05,0,.08-.02l-.05,.07h-.04v-.05Zm.08-3.63s0-.06-.04-.02t.04,.02Zm.05,0h-.02s0,.02,.01,.02c0,0,.01-.01,.01-.02Zm-.01,3.53s.01,.04,.01,.04c-.01,.01-.02,.02-.02,.04v-.05s0-.02,.01-.02Zm.07-.06s.01,.01,.02,.01c0,.02-.01,.02-.01,.02,0,0,0-.02-.01-.04-.02,0-.02-.02-.04-.02,.04-.02,.04,0,.04,.02Zm.01-.17s.01-.01,.04-.01t-.02,.02h-.01Zm.12-.76s0-.02-.02-.02v.02s-.01,.06-.01,.1c.05-.01,.05-.05,.04-.1Zm.14-2.1h-.04s.04,0,.04,0Zm.1,1.03s.02,.04,.02,.07h.05s.01,0,.01-.02c-.05-.1-.02-.19-.02-.31-.02,0-.04-.01-.06-.04,.02-.13-.02-.25-.06-.36,0,0-.02-.02-.04-.02v-.06s-.01-.02-.01-.02c0,0-.02,0-.02,.02,0,.04,0,.05,.04,.06,0,.13,.05,.25,.08,.37h.01v.31Zm-.08-1.01h.02s-.02,.01-.02,0Zm.14,1.4s.02-.01,.02-.01c0-.04,.02-.08,.02-.13,0-.04-.02-.07-.04-.12h-.04s-.01,.02-.01,.02c.05,.06,.01,.13-.02,.22,0,.01,.02,.05,.06,.02Zm.05,.16s-.05,.04-.05,.06c.01,.02,.05,.02,.06,.04h.01s-.01-.06-.02-.1Zm.02,.26h-.01s-.01,0,0-.01h.01Z"></path><path class="b" d="M11.18,4.46s.08-.01,.12-.04c.04,.02,.06,.02,.11,0,.01-.01,.07-.01,.11-.01h.59c.06,0,.11,0,.14-.04h.08c.24-.02,.47-.02,.7-.02,.04,0,.07,0,.11-.01,.04-.02,.06-.02,.1-.02h.71c.1,0,.18-.01,.25-.05,.04,0,.06-.02,.1-.02,.04-.01,.05,.02,.08,.02h.32s.04-.02,.05-.02t.04,0c.13,.04,.14,.04,.25,0,.02-.01,.04-.01,.06,0,.05,.04,.12,.02,.19,.02,.02-.02,.02-.04,.04-.04,.04-.07,.06-.07,.1,0t-.04,.01v.02s.04-.04,.04-.06c.01,0,.04,0,.05,.02,.05,.01,.08-.06,.14-.02,.05,.02,.12,0,.18,0,.05,.02,.12,0,.18-.01,.05-.04,.11-.02,.16-.02,.02,0,.04,.02,.06,.06,0,.01,0,.05,.04,.07,.05,.05,.11,.14,.11,.19v.17s-.02,.08-.07,.08h-2.31s-.07,0-.1,.02c-.02,.01-.06,.01-.07,.01h-.38c-.18,.01-.34,.01-.49,.01h-.07c-.06,.04-.11,.04-.17,.04h-.66s-.12,0-.16,.04c-.02,.02-.06,.02-.07,.02h-.35c-.06,0-.16-.02-.23,.04-.01,.01-.04,0-.07,0-.08,0-.19,0-.3,.01-.06,0-.13-.01-.18,.02-.02,.01-.06,.01-.07,.01h-.3c-.07,0-.13,.02-.17,.04-.08,0-.14,.06-.18,.11-.04,.07-.08,.11-.12,.18-.02,.07-.1,.11-.12,.18-.11,.18-.25,.36-.35,.55-.04,.04-.07,.07-.08,.11-.04,.04-.07,.07-.07,.13,0,.01,0,.04-.02,.04-.05,.07-.08,.14-.12,.23-.04,.05-.06,.11-.11,.16-.02,.02-.02,.06-.04,.07-.05,.1-.08,.18-.12,.25,0,.11-.11,.14-.13,.24,0,.01-.01,.02-.01,.05-.02,.11-.07,.19-.13,.29-.01,.05-.01,.11-.05,.16-.04,.04-.02,.1-.02,.14,0,.02,0,.06-.01,.07-.04,.04-.04,.11-.04,.16,0,.02,0,.06-.02,.1-.01,.04,.02,.05,0,.08,0,.02-.01,.04-.01,.06,0,.01,0,.04,.01,.05,0,0,.02,.02,0,.04v.02s-.01,.08-.01,.14c0,.01,.01,.04,.04,.04,.04,.01,.05,.04,.05,.07v.07s.04,.04,.04,.04c.06,.01,.1,.01,.13,.01h.08c.07,.04,.14,.04,.22,.04,.05,0,.08-.01,.12-.04,.06-.01,.11-.05,.17-.05,.01,0,.04-.02,.04-.02,.04-.01,.07-.05,.11-.07,.01-.01,.05,0,.08-.01,.04-.04,.11-.06,.14-.1,.06-.05,.11-.08,.18-.12,.05-.02,.11-.07,.16-.13,.04-.01,.06-.01,.1-.04h.04c.07-.07,.16-.11,.25-.16,.04,0,.05-.02,.08-.04,.02-.01,.04-.05,.06-.07,0-.01,.01-.04,.04-.04,.07-.04,.13-.11,.19-.16,.04-.04,.08-.06,.11-.07,.04-.04,.07-.07,.11-.11,.08-.04,.14-.1,.22-.17,.04-.04,.08-.08,.14-.11,.04-.01,.05-.07,.11-.07v.04s0,.07-.04,.11c-.02,.02-.06,.06-.06,.1-.04,0-.04,.01-.05,.05h0s-.1,0-.11,.04c-.04,.04-.07,.06-.07,.11-.04,0-.06,0-.06,.04-.01,0-.05,0-.07,.02-.08,.07-.19,.12-.26,.22-.04,.04-.08,.08-.14,.1-.05,.04-.11,.07-.16,.11-.06,.02-.1,.07-.17,.11-.04,.02-.07,.06-.08,.1-.04,.04-.1,.04-.13,.07s-.08,.04-.11,.07h-.01s-.04,.04-.06,.04c-.01,0-.01,.01-.04,.04h0s.04,.04,.04,.01c.04-.01,.06-.04,.06-.07h.14s.04-.01,.05-.04c0-.04,.02-.04,.06-.05,.04-.02,.07-.04,.11-.07,.05-.02,.07-.06,.11-.1,.05-.01,.08-.04,.12-.07,.06-.07,.14-.08,.19-.16,.07-.05,.13-.12,.22-.14,.04-.05,.1-.11,.14-.16v-.02s.06-.01,.06-.05c.05,.01,.08-.02,.12-.04,.02,0,.04,0,.04,.01v.04c-.08,.07-.16,.17-.25,.22-.04,.02-.05,.06-.08,.07-.04,.02-.06,.04-.1,.06-.01,0-.01,.01,.04,.02,.02,0,.04,.02,.04,.06v-.02s-.04,.04-.04,.06c-.04,0-.05,.01-.05,.05-.04,0-.06,.02-.06,.06-.01-.02-.01,0-.04,.01h.02s.01-.01,.01-.04c.04,0,.06-.01,.06-.04,.01-.01,.04-.01,.04-.05h.05v.07s-.07,.11-.12,.16c-.06,0-.07,.1-.13,.11-.05,.04-.1,.1-.13,.13-.11,.04-.17,.14-.25,.18-.11,.04-.18,.1-.28,.13-.05,.04-.08,.06-.12,.1-.11,.07-.22,.11-.34,.16t-.02,.02s-.12,.01-.18,.04c-.05,.01-.11,.01-.16,.04-.06,.01-.11,.01-.17,.01-.01,0-.02,0-.05,.02-.05,.04-.11,.04-.16,0-.1,0-.14-.06-.2-.11-.04-.04-.08-.07-.14-.11-.04-.04-.07-.07-.11-.1-.04-.04-.05-.08-.07-.12-.01-.04-.05-.07-.08-.11-.02-.04-.04-.05-.05-.08-.02-.02-.04-.04-.04-.07,0-.07-.06-.13-.06-.18,.02-.2,0-.38,0-.55,0-.06,0-.13,.04-.18,.02-.04,.02-.1,.02-.13s.01-.07,.04-.11c0-.01,0-.04,.01-.04,0-.05-.01-.08,.01-.12,.04-.07,.04-.14,.07-.22,.06-.08,.1-.18,.13-.25-.04-.05,0-.07,.04-.08,.01,0,.01-.02,.01-.04,.02-.02,.02-.04,.02-.04v-.02c.07-.11,.12-.19,.18-.3v-.07h.01s.06-.07,.07-.08c.02-.04,.04-.07,.04-.11,.02-.04-.01-.06-.01-.1,0-.01,.01-.01,.01-.01q.07,0,.1-.02s.04-.07,.04-.11c0,0,.01,0,.01-.01,.02-.02,0-.02-.01-.02v-.05s.01-.04,.04-.06c.01,.02,.01,.04,.01,.04,.04,0,.04-.01,.04-.04t.04-.01s-.01,0-.01-.02c0,.02-.02,.04-.02,.04h-.05c0-.07,.04-.11,.1-.14,0,.02,0,.04,.02,.04h.01s-.04-.04-.05-.04c.01,0,0-.01,.01-.02,.04-.1,.07-.18,.13-.25,.05-.07,.07-.14,.12-.2h0s0-.04-.01-.04h-.37c-.13,.07-.28,.04-.4,.06-.07,0-.14,0-.22,.04-.02,.01-.06,0-.1,0-.1,0-.2,.01-.3,.01-.05,0-.12,0-.16,.02-.02,.01-.06,.01-.07,.01h-.29s-.05,0-.07,.02c-.08,.05-.18,.01-.29,.04-.01,0-.04,0-.07,.01-.04,.02-.08,.02-.12,.02-.1,0-.18,.01-.28,.01-.05,0-.12,0-.17,.04-.02,.02-.07,.02-.1-.01-.04-.04-.08-.02-.14-.02-.04,0-.05-.01-.07-.05-.05-.04-.08-.11-.08-.18v-.14s.01-.06,.04-.07c.05-.06,.12-.1,.19-.13,.02-.01,.06-.01,.1,0,.04,.04,.07,.04,.11,.02,.01-.02,.04-.02,.05-.02,0-.01,.02-.01,.04-.01,.08,0,.19,.01,.29-.04h.23c.06,0,.1-.01,.14-.04,.02-.01,.04-.01,.06,0,.04,.04,.08,.04,.11,.02,.06-.04,.12-.04,.19-.04h.29s.11,0,.16-.04h.06c.08,0,.17,0,.26-.02,.01,0,.05,0,.07-.01,.04-.02,.07-.02,.11-.02h.52c.07,0,.12,0,.16-.04,.02-.01,.04-.01,.06,0,.05,.04,.11,.04,.16,.04,.07,0,.17-.01,.24,0,.07,0,.12-.04,.16-.08,.04-.04,.06-.11,.11-.14,.05-.06,.11-.1,.12-.14,.1-.13,.18-.22,.29-.32,.06-.05,.07-.12,.13-.18,.05-.04,.11-.08,.14-.14,.16-.22,.34-.37,.52-.55,.05-.05,.11-.11,.14-.16,.04-.02,.05-.06,.07-.07,.01-.06,.07-.06,.11-.06s.05,.02,.07,.02c.01,0,.04,.01,.06,.01,.06,.02,.1,.04,.11,.1,.02,.04,.06,.07,.1,.11,.01,.01,.01,.05,.01,.08s.02,.07,.02,.12c-.02,.22,.01,.18-.14,.32-.11,.13-.23,.24-.36,.36-.04,.04-.08,.1-.12,.12-.06,.07-.17,.1-.2,.18-.04,.07-.11,.13-.14,.18-.04,.04-.05,.07-.04,.11-.01,0-.04,0-.05,.02h.01s.04,0,.02-.02h.58Zm-2.83,.31v-.02h-.07s-.01,.02-.04,.02c.02,.01,.04,.01,.06,.01h.01s.04,0,.04-.01Zm-.05,1.94h.01s.02,.01,.02,.04c-.02,0-.04-.02-.04-.04Zm.32-1.93s.01-.01,.04-.01c-.02,0-.04-.02-.06-.02h-.14v.02s-.01,.01,0,.01c.02,0,.06,0,.04,0h.13Zm-.14,1.56v-.02s.04,.02,.04,.04t-.04-.01Zm.25-.43s.01-.02,.04-.02v.04s-.04,0-.04-.01Zm.59-1.25s-.06,0-.07,.01c-.04,0-.06,.02-.1,.02h-.22s-.1,.01-.16,.01c-.01,0-.01,.02-.01,.04,0,.02,.01,.04,.01,.02,.04-.02,.07-.02,.12-.02h.42s.05-.01,.07-.01c.01,0,.04-.02,.04-.02,.01-.01,.01-.04,.04-.04,0-.01-.04-.01-.07-.01-.02,.04-.06,.04-.07,0Zm-.38,4.27h-.01s0,.02,.01,.05c.06,.01,.1,.05,.17,.04,.04,0,.07,.01,.11,.04,0,.01,.01,.01,.04,0,.05-.02,.11-.02,.14-.04v-.02s0-.01,0-.01c-.04,0-.07,0-.1-.02-.04-.01-.05-.01-.08,0-.06-.02-.1-.02-.18-.02h-.1Zm1.49-4.31h.02s.01,0,.01-.02c.06,0,.11-.01,.14,.02,.01,0,.04,.01,.04,0,.07-.04,.14-.02,.22-.02h.16c.07,0,.14,0,.22-.04,0-.01,.02,0,.04,0,.02,0,.04,.02,.04,.02,.08-.06,.19-.02,.29-.04h.29c.05-.07,.14-.04,.22-.04,.12,0,.23,0,.35-.02h.06s0-.04,.01-.04c.02,0,.02,.02,.04,.02,.02,0,.04,.01,.04,.01,.04-.04,.06-.01,.1,0,.05,.02,.11,.02,.14,0,.05-.04,.11-.04,.18-.04h.28c.11,0,.2,.02,.31-.04h.01s.07,.02,.11,0c.02,0,.06,.02,.07,.02,.02,0,.06-.02,.08-.04h.07s.07,.05,.13,.01c.07-.01,.16-.01,.23-.01h.88s.02-.02,.04-.02t-.04-.01h-1.06c-.18-.02-.35,0-.52,0-.04,0-.07,0-.08,.01-.02,.02-.04,.02-.06,0-.05-.04-.08-.04-.14,0-.04,.02-.07,.02-.08,.02h-.62s-.06,0-.07,.01c0,0-.02,.02-.02,.04-.01,0-.04-.01-.04-.01-.01,0-.04-.02-.05-.02-.04,.04-.11,.04-.17,.04h-.37s-.05,0-.07,.02c-.05,.04-.12,.01-.19,.01-.17,.02-.32,.02-.48,.02-.02,0-.06-.02-.1,.01-.04,.02-.08,.02-.12,.02h-.4s-.01,0-.04,.01c-.01,0-.01,.02-.01,.04-.02,0-.04,0-.06,.02Zm.37,3.55s.04,0,.04,.01c0,.02-.01,.02-.04,.02v-.04Zm.4-3.39s.02-.01,.02-.01c0-.02-.02-.02-.02-.02h-.05s-.02,.02-.04,.02c.01,0,.01,.01,.04,.01h.05Zm-.05-.11h0Zm.08,2.91s-.01,.04-.01,.04c-.02,.01-.02-.02-.04-.04h.05Zm.04,0h-.04v-.04s.04,0,.04,.04Zm.16-.37s-.01,.05-.05,.05c0,.01-.01,.04-.05,.05,0-.04,.01-.05,.05-.05,0-.04,.01-.05,.05-.05Zm-.06-2.55h0Zm.05,.11s-.02-.02-.04-.02-.01,.02-.04,.02c.02,0,.02,.01,.04,.01s.01,0,.04-.01Zm.04,2.41h.01s-.01,.04-.04,.04t.02-.04Zm.05-2.4s0-.01,.02-.01c-.02,0-.02-.02-.02-.02-.01,0-.01,.02-.01,.02,0,0,0,.01,.01,.01Zm.04,2.3h0s.02-.04,.04-.04h.02s.01,.02,.01,.04c-.01,.02-.01,.04-.05,.04,0-.01-.02-.01-.02-.04Zm.22-2.35v-.02h-.04s.02,.02,.02,.02h.01Zm.18,0s-.01-.04-.04-.02c-.01,0-.04,0-.01,.02,0,0,.01,.01,.01,0h.04Zm.11,0s-.01-.02-.04-.02c0,.02,.02,.02,.02,.02h.01Zm-.01-.11s-.02,0,0,.01c0,0,0-.01,.01-.01h-.01Zm.14,.01h0s0-.04-.02-.04c0,0-.01,0-.04,.02,0,0,0,.01,.02,.01h.04Zm.04,.06s-.04,.01-.06,.01c.02,.02,.04,.02,.06,.04,.01,0,.02,0,.05-.01v-.02s-.04-.01-.05-.01Zm.1-.06s.06,.02,.1,0h.01s-.01-.04-.04-.04c-.04,0-.05,0-.08,.02,.01,0,.01,.01,.01,.01Zm.04,.07s0,.02,.02,.02c0-.02-.02-.02-.02-.02Zm.54-.05h-.29s-.01,.01-.01,.04c0,.04,.01,.04,.01,.04,.04-.02,.07-.04,.1-.04h.35s.06,0,.07-.02h0c-.08-.01-.16-.01-.23-.04v.02Zm-.25-.07h.02v-.02h-.02v.02Zm.43,.01s0-.01,.01-.01c0-.02-.01-.02-.04-.02-.02-.01-.06,0-.1,0,0,0-.02,0-.02,.02h.02s.05,.01,.05,.01h.07Zm.54,0h-.11c-.06,0-.11,.07-.17,.06t-.01,.01s.12,.02,.18-.01c.01-.02,.05,0,.07,.01,.04,0,.05,0,.05-.04t-.01-.04Zm.19-.07s0-.01-.01-.01h0v.01Zm.17,.11s.02-.01,.02-.01c0-.02-.02-.02-.02-.02h-.16v.02s-.01,.01,0,.01h.16Zm.06-.08h.04s.01-.02,.04-.02c-.02,0-.04-.01-.04-.01h-.13s.02,.04,0,.04h.1Zm.16,.07v-.02s-.01,.02-.01,.02c0,0,0,.01,.01,.01h0Zm.04-.12s-.01,.01,0,.04l.02-.02s0-.01-.02-.01Zm.17,.04h.01s.02-.02,.02-.02t-.02-.01s-.04,0-.04,.01l.02,.02Zm.26,0s.02-.02,.02-.02c0,0,0-.01-.02-.01,0,0,0,.01-.01,.01,.01,0,.01,.02,.01,.02Zm.12,.05s-.04,.02-.04,.02t.04,.01h.1s.01,0,.04-.01c-.02,0-.04-.02-.06-.02h-.07Zm.61-.22s-.01-.01-.04-.01c0,0-.01,0-.04,.01,.02,0,.02,.02,.02,.02,.01,0,.04,0,.05-.02Zm.1,.02v-.02h0s-.02,0-.02,0c0,0,0,.02,.02,.02Zm.08-.04s-.02,.01,0,.04c0,0,0-.02,.01-.02-.01,0-.01-.01-.01-.01Z"></path><path class="b" d="M12.91,8.47c.04-.07,.06-.14,.1-.22,.01,0,.01-.02,.04-.04,.05-.02,.08-.07,.12-.11,.04-.02,.1-.04,.13-.06,.07-.05,.12-.01,.18,.02,.11,.07,.18,.19,.22,.32-.01,.05,.02,.11-.01,.16-.04,.02-.04,.06-.07,.1-.02,.04-.04,.06-.02,.1,0,.05-.04,.08-.07,.12,0,.02-.01,.04-.01,.04-.13,.06-.24,.07-.37,.06-.07-.02-.14-.06-.18-.14-.04-.06-.05-.13-.05-.2,0-.06,0-.1,.01-.14Z"></path></svg> 